<!DOCTYPE svg PUBLIC "-//W3C//DTD SVG 1.1//EN" "http://www.w3.org/Graphics/SVG/1.1/DTD/svg11.dtd">
<!-- Uploaded to: SVG Repo, www.svgrepo.com, Transformed by: SVG Repo Mixer Tools -->
<svg version="1.0" id="Layer_1" xmlns="http://www.w3.org/2000/svg" xmlns:xlink="http://www.w3.org/1999/xlink" width="83px" height="83px" viewBox="0 0 64 64" enable-background="new 0 0 64 64" xml:space="preserve" fill="#000000">
<g id="SVGRepo_bgCarrier" stroke-width="0"/>
<g id="SVGRepo_tracerCarrier" stroke-linecap="round" stroke-linejoin="round"/>
<g id="SVGRepo_iconCarrier"> <g> <polygon fill="#B4CCB9" points="8,30.344 32,54.344 54.344,32 30.344,8 8,8 "/> <g> <path fill="#394240" d="M62.828,29.172l-28-28C34.078,0.422,33.062,0,32,0H4C1.789,0,0,1.789,0,4v28 c0,1.062,0.422,2.078,1.172,2.828l28,28C29.953,63.609,30.977,64,32,64s2.047-0.391,2.828-1.172l28-28 C64.391,33.266,64.391,30.734,62.828,29.172z M32,54.344l-24-24V8h22.344l24,24L32,54.344z"/> <circle fill="#394240" cx="20" cy="20" r="4"/> </g> </g> </g>
</svg>